<?xml version="1.0" encoding="UTF-8"?>
<svg id="Ebene_1" xmlns="http://www.w3.org/2000/svg" version="1.1" viewBox="0 0 2167.8 673.8">
  <!-- Generator: Adobe Illustrator 30.1.0, SVG Export Plug-In . SVG Version: 2.1.1 Build 136)  -->
  <defs>
    <style>
      .st0 {
        fill: #9d9d9d;
      }

      .st1 {
        isolation: isolate;
      }
    </style>
  </defs>
  <g class="st1">
    <g class="st1">
      <path class="st0" d="M38.4,0l55.8,98L150,0h38.1l-77.2,131.7v88.3h-33.5v-88.3L0,0h38.4Z"/>
      <path class="st0" d="M187.2,137.9c0-52.4,31-85.9,78.4-85.9s78.1,33.5,78.1,85.9-31,85.9-78.1,85.9-78.4-33.5-78.4-85.9ZM265.7,195.3c27.9,0,44-21.4,44-57.3s-16.1-57.3-44-57.3-44.3,21.4-44.3,57.3,16.4,57.3,44.3,57.3Z"/>
      <path class="st0" d="M475.5,220.1l-.3-27c-9,21.7-27.6,30.7-49,30.7-36.3,0-55.2-26.3-55.2-62.3V55.8h32.9v95.5c0,29.1,8.7,44.9,31,44.9s38.4-15.8,38.4-44.9V55.8h32.9v164.3h-30.7Z"/>
      <path class="st0" d="M576.6,55.8l.9,31c5.9-21.1,18.3-31,39.4-31h15.8v27h-16.1c-25.7,0-37.2,14.3-37.2,41.5v95.8h-32.9V55.8h30.1Z"/>
    </g>
    <g class="st1">
      <path class="st0" d="M16.4,255.8h30.7l.9,24.5c9-18.3,26.3-28.2,49.9-28.2,48,0,70.7,39.7,70.7,85.9s-22.6,85.9-70.7,85.9-39.4-9.3-48.7-26.7v69.4H16.4v-210.8ZM90.2,395.6c31,0,44-27.6,44-57.7s-13.3-57.7-44-57.7-43.7,28.2-43.7,57.7,13.3,57.7,43.7,57.7Z"/>
      <path class="st0" d="M227.8,255.8l.9,31c5.9-21.1,18.3-31,39.4-31h15.8v27h-16.1c-25.7,0-37.2,14.3-37.2,41.5v95.8h-32.9v-164.3h30.1Z"/>
      <path class="st0" d="M373.5,252.1c39.4,0,72.5,26.3,74.1,84.6l.3,10.5h-118.1c2.2,30.7,18,48.7,43.7,48.7s31-9.6,37.5-25.4l34.4,2.5c-9.6,31.3-38.4,50.8-71.9,50.8-47.7,0-78.4-33.8-78.4-85.9s30.7-85.9,78.4-85.9ZM413.2,322.8c-3.7-31.3-21.1-42.8-39.7-42.8s-39.4,15.8-43.1,42.8h82.8Z"/>
      <path class="st0" d="M537.5,279.4c-16.7,0-30.4,8.7-30.4,23.2.3,14.9,19.2,20.8,36.6,24.2,40.9,7.4,67,18.3,67,50.5s-32.2,46.5-67.3,46.5-71.9-21.1-74.4-55.5l33.8-2.2c3.4,18.6,17.7,30.4,40.3,30.4s33.5-5.3,33.5-20.8c-.3-17.7-21.1-19.8-38.7-23.9-35-7.4-64.8-17-64.8-48.4s26-51.5,67-51.5,62.9,20.8,68.2,53.6l-33.8,1.9c-3.4-17.7-19.8-28.2-36.9-28.2Z"/>
      <path class="st0" d="M710.2,252.1c39.4,0,72.5,26.3,74.1,84.6l.3,10.5h-118.1c2.2,30.7,18,48.7,43.7,48.7s31-9.6,37.5-25.4l34.4,2.5c-9.6,31.3-38.4,50.8-71.9,50.8-47.7,0-78.4-33.8-78.4-85.9s30.7-85.9,78.4-85.9ZM749.9,322.8c-3.7-31.3-21.1-42.8-39.7-42.8s-39.4,15.8-43.1,42.8h82.8Z"/>
      <path class="st0" d="M843.5,255.8l.9,27.6c8.4-22,27.6-31.3,49.9-31.3,36.9,0,55.8,26.3,55.8,62.3v105.7h-32.9v-95.5c0-29.1-9-44.9-31.9-44.9s-39.1,15.8-39.1,44.9v95.5h-32.9v-164.3h30.1Z"/>
      <path class="st0" d="M1054.9,280.6c-27.9,0-44.3,21.4-44.3,57.3s16.4,57.3,44.3,57.3,35.6-12.7,39.1-35.6l34.4,1.9c-5,38.4-35.7,62.3-73.5,62.3s-78.4-33.8-78.4-85.9,30.7-85.9,78.4-85.9,67.9,22.6,72.2,59.5l-34.1,1.9c-3.4-20.8-19.5-32.9-38.1-32.9Z"/>
      <path class="st0" d="M1225.1,252.1c39.4,0,72.5,26.3,74.1,84.6l.3,10.5h-118.1c2.2,30.7,18,48.7,43.7,48.7s31-9.6,37.5-25.4l34.4,2.5c-9.6,31.3-38.4,50.8-71.9,50.8-47.7,0-78.4-33.8-78.4-85.9s30.7-85.9,78.4-85.9ZM1264.8,322.8c-3.7-31.3-21.1-42.8-39.7-42.8s-39.4,15.8-43.1,42.8h82.8Z"/>
    </g>
    <g class="st1">
      <path class="st0" d="M325.8,450v182c0,7.4,4,11.2,11.2,11.2h13.3v27h-20.5c-22,0-36.9-14.3-36.9-36.6v-183.5h32.9Z"/>
      <path class="st0" d="M445.2,502.1c39.4,0,72.5,26.3,74.1,84.6l.3,10.5h-118.1c2.2,30.7,18,48.7,43.7,48.7s31-9.6,37.5-25.4l34.4,2.5c-9.6,31.3-38.4,50.8-71.9,50.8-47.7,0-78.4-33.8-78.4-85.9s30.7-85.9,78.4-85.9ZM484.8,572.8c-3.7-31.3-21.1-42.8-39.7-42.8s-39.4,15.8-43.1,42.8h82.8Z"/>
      <path class="st0" d="M615.7,502.1c44.6,0,69.1,24.8,69.1,69.7v61.1c0,8.4,3.7,11.5,10.2,11.5h6.5v25.7h-10.2c-14.9.3-35-2.2-36.6-25.4-7.4,15.8-25.7,29.1-53,29.1s-59.2-17.7-59.2-46.8,24.5-42.5,62.3-49.6l47.1-9.3c-.3-26.3-12.4-39.4-36.3-39.4s-31.9,9.9-36.3,28.5l-34.1-2.2c6.5-33.2,32.5-53,70.4-53ZM608.8,648.4c24.5-.3,43.7-17.7,43.7-53v-2.2l-35,6.2c-22.6,4-40.9,6.2-40.9,27s10.5,22,32.2,22Z"/>
      <path class="st0" d="M803.5,670.1h-40l-60.1-164.3h34.4l45.6,130.5,45.6-130.5h34.7l-60.1,164.3Z"/>
      <path class="st0" d="M948.3,502.1c39.4,0,72.5,26.3,74.1,84.6l.3,10.5h-118.1c2.2,30.7,18,48.7,43.7,48.7s31-9.6,37.5-25.4l34.4,2.5c-9.6,31.3-38.4,50.8-71.9,50.8-47.7,0-78.4-33.8-78.4-85.9s30.7-85.9,78.4-85.9ZM988,572.8c-3.7-31.3-21.1-42.8-39.7-42.8s-39.4,15.8-43.1,42.8h82.8Z"/>
      <path class="st0" d="M1112.3,529.4c-16.7,0-30.4,8.7-30.4,23.2.3,14.9,19.2,20.8,36.6,24.2,40.9,7.4,67,18.3,67,50.5s-32.2,46.5-67.3,46.5-71.9-21.1-74.4-55.5l33.8-2.2c3.4,18.6,17.7,30.4,40.3,30.4s33.5-5.3,33.5-20.8c-.3-17.7-21.1-19.8-38.8-23.9-35-7.4-64.8-17-64.8-48.4s26-51.5,67-51.5,62.9,20.8,68.2,53.6l-33.8,1.9c-3.4-17.7-19.8-28.2-36.9-28.2Z"/>
      <path class="st0" d="M1335.5,468.6v37.2h43.4v26.7h-43.4v90.5c0,13.3,6.5,20.1,19.2,20.1h23.9v27h-27.3c-31.6,0-48.7-16.4-48.7-47.1v-90.5h-25.1v-26.7h25.1v-37.2h32.9Z"/>
      <path class="st0" d="M1436.8,505.8l.9,31c5.9-21.1,18.3-31,39.4-31h15.8v27h-16.1c-25.7,0-37.2,14.3-37.2,41.5v95.8h-32.9v-164.3h30.1Z"/>
      <path class="st0" d="M1581.3,502.1c44.6,0,69.1,24.8,69.1,69.7v61.1c0,8.4,3.7,11.5,10.2,11.5h6.5v25.7h-10.2c-14.9.3-35-2.2-36.6-25.4-7.4,15.8-25.7,29.1-53,29.1s-59.2-17.7-59.2-46.8,24.5-42.5,62.3-49.6l47.1-9.3c-.3-26.3-12.4-39.4-36.3-39.4s-31.9,9.9-36.3,28.5l-34.1-2.2c6.5-33.2,32.5-53,70.4-53ZM1574.5,648.4c24.5-.3,43.7-17.7,43.7-53v-2.2l-35,6.2c-22.6,4-40.9,6.2-40.9,27s10.5,22,32.2,22Z"/>
      <path class="st0" d="M1760.5,530.6c-27.9,0-44.3,21.4-44.3,57.3s16.4,57.3,44.3,57.3,35.6-12.7,39.1-35.6l34.4,1.9c-5,38.4-35.7,62.3-73.5,62.3s-78.4-33.8-78.4-85.9,30.7-85.9,78.4-85.9,67.9,22.6,72.2,59.5l-34.1,1.9c-3.4-20.8-19.5-32.9-38.1-32.9Z"/>
      <path class="st0" d="M1930.7,502.1c39.4,0,72.5,26.3,74.1,84.6l.3,10.5h-118.1c2.2,30.7,18,48.7,43.7,48.7s31-9.6,37.5-25.4l34.4,2.5c-9.6,31.3-38.4,50.8-71.9,50.8-47.7,0-78.4-33.8-78.4-85.9s30.7-85.9,78.4-85.9ZM1970.3,572.8c-3.7-31.3-21.1-42.8-39.7-42.8s-39.4,15.8-43.1,42.8h82.8Z"/>
      <path class="st0" d="M2094.7,529.4c-16.7,0-30.4,8.7-30.4,23.2.3,14.9,19.2,20.8,36.6,24.2,40.9,7.4,67,18.3,67,50.5s-32.2,46.5-67.3,46.5-71.9-21.1-74.4-55.5l33.8-2.2c3.4,18.6,17.7,30.4,40.3,30.4s33.5-5.3,33.5-20.8c-.3-17.7-21.1-19.8-38.8-23.9-35-7.4-64.8-17-64.8-48.4s26-51.5,67-51.5,62.9,20.8,68.2,53.6l-33.8,1.9c-3.4-17.7-19.8-28.2-36.9-28.2Z"/>
    </g>
  </g>
</svg>