<?xml version="1.0" encoding="UTF-8"?>
<svg id="Ebene_1" data-name="Ebene 1" xmlns="http://www.w3.org/2000/svg" viewBox="0 0 2160 1250">
  <defs>
    <style>
      .cls-1 {
        fill: #9d9d9d;
      }
    </style>
  </defs>
  <path class="cls-1" d="M550.64,74.52c19.76,0,34.84,14.04,34.84,33.28s-15.08,33.8-34.84,33.8-34.32-14.04-34.32-33.8,15.08-33.28,34.32-33.28ZM583.92,177.48v275.6h-66.56V177.48h66.56Z"/>
  <path class="cls-1" d="M678.05,177.48l2.08,45.76c14.56-37.44,45.76-52,82.68-52,61.36,0,94.64,42.64,94.64,104.52v177.32h-67.08v-156c0-46.28-11.96-71.76-47.84-71.76s-58.24,25.48-58.24,71.76v156h-66.56V177.48h60.32Z"/>
  <path class="cls-1" d="M1042.57,43.08h66.04l-153.92,447.2h-65.52l153.4-447.2Z"/>
  <path class="cls-1" d="M892.79,813.08h-78.52l-101.4-275.6h68.64l71.76,208,71.76-208h69.68l-101.92,275.6Z"/>
  <path class="cls-1" d="M1008.23,444.4h69.16v55.12h-69.16v-55.12ZM1075.83,537.48v275.6h-66.56v-275.6h66.56Z"/>
  <path class="cls-1" d="M1221.43,581.16c-26,0-46.28,13.52-45.76,35.88.52,22.36,28.08,31.72,55.64,36.92,75.4,13,117,32.76,117,85.28s-53.04,80.08-117.52,80.08c-75.4,0-126.36-35.36-131.04-93.6l68.12-3.64c5.2,29.12,27.04,46.8,61.36,46.8,22.88,0,50.44-8.32,49.92-31.2,0-26.52-30.68-30.68-58.76-36.92-68.12-13.52-113.88-31.2-113.88-82.68,0-54.08,44.72-86.84,118.56-86.84,64.48,0,110.76,34.84,120.12,91.52l-67.6,3.12c-5.2-28.08-29.64-44.72-56.16-44.72Z"/>
  <path class="cls-1" d="M1402.39,434.52c19.76,0,34.84,14.04,34.84,33.28s-15.08,33.8-34.84,33.8-34.32-14.04-34.32-33.8,15.08-33.28,34.32-33.28ZM1435.67,537.48v275.6h-66.56v-275.6h66.56Z"/>
  <path class="cls-1" d="M1528.75,443.88v131.04c16.12-27.04,47.32-43.68,83.2-43.68,71.76,0,116.48,55.64,116.48,144.04s-44.72,144.04-116.48,144.04c-37.96,0-69.16-17.68-84.76-45.76l-1.56,39.52h-63.44v-369.2h66.56ZM1592.2,765.76c40.56,0,67.6-35.36,67.6-90.48s-26.52-92.04-67.6-92.04-67.6,35.88-67.6,92.04,26.52,90.48,67.6,90.48Z"/>
  <path class="cls-1" d="M1819.95,443.88v297.44c0,13,7.28,20.28,20.28,20.28h20.8v51.48h-37.96c-41.6,0-69.68-26-69.68-69.16v-300.04h66.56Z"/>
  <path class="cls-1" d="M2000.9,531.24c71.24,0,128.44,48.88,129.48,146.12v16.12h-196.04c3.12,45.76,27.04,73.32,66.56,73.32,24.96,0,47.84-14.56,57.72-38.48l68.12,5.2c-16.64,52.52-66.56,85.8-125.84,85.8-82.68,0-136.76-56.68-136.76-144.04s54.08-144.04,136.76-144.04ZM2061.75,649.28c-5.2-47.32-31.2-65.52-60.84-65.52-36.92,0-60.84,24.44-66.04,65.52h126.88Z"/>
  <path class="cls-1" d="M46.26,857.48h58.24l2.6,61.36-6.76-7.8c7.28-19.76,18.02-34.66,32.24-44.72,14.21-10.05,31.89-15.08,53.04-15.08,23.57,0,43.76,6.24,60.58,18.72,16.81,12.48,29.46,29.56,37.96,51.22,8.49,21.67,12.74,46.37,12.74,74.1s-4.25,52-12.74,73.84c-8.5,21.84-21.15,39-37.96,51.48-16.82,12.48-37.01,18.72-60.58,18.72-13.52,0-25.74-2.43-36.66-7.28s-20.46-11.7-28.6-20.54c-8.15-8.84-14.82-19.84-20.02-33.02l7.8-6.76v139.36h-61.88v-353.6ZM109.96,1040.26c4.68,13.35,11.87,24.01,21.58,31.98,9.7,7.98,21.66,11.96,35.88,11.96,21.14,0,37.09-8.4,47.84-25.22,10.74-16.81,16.12-38.04,16.12-63.7s-5.38-47.4-16.12-64.22c-10.75-16.81-26.7-25.22-47.84-25.22-14.22,0-26.18,4.08-35.88,12.22-9.71,8.15-16.9,18.9-21.58,32.24-4.68,13.35-7.02,28.34-7.02,44.98s2.34,31.64,7.02,44.98Z"/>
  <path class="cls-1" d="M411.29,857.48v54.6h-100.88v-54.6h100.88ZM525.17,1078.48v54.6h-214.76v-54.6h214.76ZM419.61,857.48l5.72,72.28-4.16-4.68c3.12-22.88,10.57-39.86,22.36-50.96,11.78-11.09,28.08-16.64,48.88-16.64h57.72v54.6h-52.52c-13.18,0-23.92,2.17-32.24,6.5-8.32,4.34-14.48,10.92-18.46,19.76-3.99,8.84-5.98,20.37-5.98,34.58v160.16h-61.36v-275.6h40.04Z"/>
  <path class="cls-1" d="M573.01,919.36c10.74-21.84,26-38.65,45.76-50.44,19.76-11.78,42.98-17.68,69.68-17.68,22.53,0,43.16,5.12,61.88,15.34,18.72,10.23,33.97,26,45.76,47.32,11.78,21.32,18.02,47.76,18.72,79.3v17.68h-191.36c1.73,23.23,8.23,41.26,19.5,54.08,11.26,12.83,26.43,19.24,45.5,19.24,12.48,0,23.74-3.55,33.8-10.66,10.05-7.1,17.85-17.07,23.4-29.9l64.48,6.24c-7.63,27.04-22.54,48.71-44.72,65-22.19,16.3-47.84,24.44-76.96,24.44-26.7,0-49.92-5.9-69.68-17.68s-35.02-28.6-45.76-50.44c-10.75-21.84-16.12-47.14-16.12-75.92s5.37-54.08,16.12-75.92ZM726.67,921.44c-10.58-10.05-23.32-15.08-38.22-15.08-17.34,0-31.46,5.29-42.38,15.86-10.92,10.58-17.94,25.74-21.06,45.5h122.72c-3.47-20.8-10.49-36.22-21.06-46.28Z"/>
  <path class="cls-1" d="M977.04,916.5c-9.71-6.76-21.67-10.14-35.88-10.14-12.83,0-23.32,2.78-31.46,8.32-8.15,5.55-12.05,13.18-11.7,22.88.69,9.36,5.37,16.3,14.04,20.8,8.66,4.51,22.18,9.19,40.56,14.04l8.84,2.08c20.1,4.51,37.52,10.4,52.26,17.68,14.73,7.28,26.6,16.56,35.62,27.82,9.01,11.27,13.52,24.36,13.52,39.26,0,26-10.32,45.85-30.94,59.54-20.63,13.7-47.76,20.54-81.38,20.54-22.54,0-42.9-3.9-61.1-11.7s-32.85-18.89-43.94-33.28c-11.1-14.38-17.34-31.11-18.72-50.18l66.04-3.12c1.04,9.36,4.16,17.16,9.36,23.4,5.2,6.24,11.96,11.1,20.28,14.56,8.32,3.47,17.68,5.2,28.08,5.2,13.86,0,25.22-2.08,34.06-6.24s13.26-11.09,13.26-20.8c0-5.89-2.17-10.74-6.5-14.56-4.34-3.81-9.88-6.93-16.64-9.36-6.76-2.42-15.69-5.2-26.78-8.32l-11.44-2.6c-32.24-7.62-57.46-18.02-75.66-31.2-18.2-13.17-27.3-30.68-27.3-52.52,0-17.68,4.85-33.1,14.56-46.28,9.7-13.17,23.22-23.31,40.56-30.42,17.33-7.1,36.4-10.66,57.2-10.66,30.16,0,55.72,8.24,76.7,24.7,20.97,16.47,33.71,38.57,38.22,66.3l-65.52,3.12c-2.43-12.48-8.5-22.1-18.2-28.86Z"/>
  <path class="cls-1" d="M1093,919.36c10.74-21.84,26-38.65,45.76-50.44,19.76-11.78,42.98-17.68,69.68-17.68,22.53,0,43.16,5.12,61.88,15.34,18.72,10.23,33.97,26,45.76,47.32,11.78,21.32,18.02,47.76,18.72,79.3v17.68h-191.36c1.73,23.23,8.23,41.26,19.5,54.08,11.26,12.83,26.43,19.24,45.5,19.24,12.48,0,23.74-3.55,33.8-10.66,10.05-7.1,17.85-17.07,23.4-29.9l64.48,6.24c-7.63,27.04-22.54,48.71-44.72,65-22.19,16.3-47.84,24.44-76.96,24.44-26.7,0-49.92-5.9-69.68-17.68s-35.02-28.6-45.76-50.44c-10.75-21.84-16.12-47.14-16.12-75.92s5.37-54.08,16.12-75.92ZM1246.66,921.44c-10.58-10.05-23.32-15.08-38.22-15.08-17.34,0-31.46,5.29-42.38,15.86-10.92,10.58-17.94,25.74-21.06,45.5h122.72c-3.47-20.8-10.49-36.22-21.06-46.28Z"/>
  <path class="cls-1" d="M1413.84,857.48l4.16,80.6-10.4-2.6c3.46-27.38,12.91-48.27,28.34-62.66,15.42-14.38,34.75-21.58,57.98-21.58,28.42,0,50.26,9.45,65.52,28.34,15.25,18.9,22.88,44.29,22.88,76.18v177.32h-61.88v-163.8c0-23.22-3.73-40.47-11.18-51.74-7.46-11.26-19.33-16.9-35.62-16.9-17.34,0-30.77,5.9-40.3,17.68-9.54,11.79-14.3,28.78-14.3,50.96v163.8h-61.88v-275.6h56.68Z"/>
  <path class="cls-1" d="M1769.77,921.44c-10.92-10.05-23.66-15.08-38.22-15.08-20.8,0-37.01,7.8-48.62,23.4-11.62,15.6-17.42,37.44-17.42,65.52s5.8,49.92,17.42,65.52c11.61,15.6,27.82,23.4,48.62,23.4,15.25,0,28.34-5.11,39.26-15.34,10.92-10.22,17.76-24.18,20.54-41.86l65.52,3.12c-2.78,21.84-9.97,41-21.58,57.46-11.62,16.47-26.52,29.21-44.72,38.22s-37.88,13.52-59.02,13.52c-26.7,0-49.84-5.9-69.42-17.68-19.59-11.78-34.67-28.6-45.24-50.44-10.58-21.84-15.86-47.14-15.86-75.92s5.28-54.08,15.86-75.92c10.57-21.84,25.65-38.65,45.24-50.44,19.58-11.78,42.72-17.68,69.42-17.68,20.8,0,40.12,4.42,57.98,13.26,17.85,8.84,32.67,21.32,44.46,37.44,11.78,16.12,18.72,34.58,20.8,55.38l-64.48,3.64c-2.78-16.29-9.62-29.46-20.54-39.52Z"/>
  <path class="cls-1" d="M1883.39,919.36c10.74-21.84,26-38.65,45.76-50.44,19.76-11.78,42.98-17.68,69.68-17.68,22.53,0,43.16,5.12,61.88,15.34,18.72,10.23,33.97,26,45.76,47.32,11.78,21.32,18.02,47.76,18.72,79.3v17.68h-191.36c1.73,23.23,8.23,41.26,19.5,54.08,11.26,12.83,26.43,19.24,45.5,19.24,12.48,0,23.74-3.55,33.8-10.66,10.05-7.1,17.85-17.07,23.4-29.9l64.48,6.24c-7.63,27.04-22.54,48.71-44.72,65-22.19,16.3-47.84,24.44-76.96,24.44-26.7,0-49.92-5.9-69.68-17.68s-35.02-28.6-45.76-50.44c-10.75-21.84-16.12-47.14-16.12-75.92s5.37-54.08,16.12-75.92ZM2037.05,921.44c-10.58-10.05-23.32-15.08-38.22-15.08-17.34,0-31.46,5.29-42.38,15.86-10.92,10.58-17.94,25.74-21.06,45.5h122.72c-3.47-20.8-10.49-36.22-21.06-46.28Z"/>
</svg>