<?xml version="1.0" encoding="UTF-8"?>
<svg id="Ebene_1" xmlns="http://www.w3.org/2000/svg" version="1.1" viewBox="0 0 2135.3 1537.5">
  <!-- Generator: Adobe Illustrator 30.1.0, SVG Export Plug-In . SVG Version: 2.1.1 Build 136)  -->
  <defs>
    <style>
      .st0 {
        fill: #9d9d9d;
      }

      .st1 {
        isolation: isolate;
      }
    </style>
  </defs>
  <g class="st1">
    <g class="st1">
      <path class="st0" d="M664.3,0l98.1,172.2L860.4,0h67l-135.7,231.5v155.3h-58.8v-155.3L596.8,0h67.6Z"/>
      <path class="st0" d="M909.5,242.4c0-92.1,54.5-150.9,137.8-150.9s137.3,58.8,137.3,150.9-54.5,150.9-137.3,150.9-137.8-58.8-137.8-150.9ZM1047.3,343.2c49,0,77.4-37.6,77.4-100.8s-28.3-100.8-77.4-100.8-77.9,37.6-77.9,100.8,28.9,100.8,77.9,100.8Z"/>
      <path class="st0" d="M1399.8,386.8l-.5-47.4c-15.8,38.1-48.5,53.9-86.1,53.9-63.7,0-97-46.3-97-109.5V98.1h57.8v167.8c0,51.2,15.3,79,54.5,79s67.6-27.8,67.6-79V98.1h57.8v288.8h-53.9Z"/>
      <path class="st0" d="M1561.1,98.1l1.6,54.5c10.4-37,32.1-54.5,69.2-54.5h27.8v47.4h-28.3c-45.2,0-65.4,25.1-65.4,73v168.3h-57.8V98.1h52.8Z"/>
    </g>
    <g class="st1">
      <path class="st0" d="M-5.2,446.7h53.9l1.6,43c15.8-32.1,46.3-49.6,87.7-49.6,84.4,0,124.2,69.7,124.2,150.9s-39.8,150.9-124.2,150.9-69.2-16.3-85.5-46.9v122H-5.2v-370.5ZM124.4,692.5c54.5,0,77.4-48.5,77.4-101.3s-23.4-101.3-77.4-101.3-76.8,49.6-76.8,101.3,23.4,101.3,76.8,101.3Z"/>
      <path class="st0" d="M350,446.7l1.6,54.5c10.4-37,32.1-54.5,69.2-54.5h27.8v47.4h-28.3c-45.2,0-65.4,25.1-65.4,73v168.3h-57.8v-288.8h52.8Z"/>
      <path class="st0" d="M589.7,440.2c69.2,0,127.5,46.3,130.2,148.7l.5,18.5h-207.6c3.8,53.9,31.6,85.5,76.8,85.5s54.5-16.9,65.9-44.7l60.5,4.4c-16.9,55-67.6,89.3-126.4,89.3-83.9,0-137.8-59.4-137.8-150.9s53.9-150.9,137.8-150.9ZM659.4,564.4c-6.5-55-37-75.2-69.7-75.2s-69.2,27.8-75.7,75.2h145.5Z"/>
      <path class="st0" d="M861.5,488.2c-29.4,0-53.4,15.3-53.4,40.9.5,26.2,33.8,36.5,64.3,42.5,71.9,13.1,117.7,32.1,117.7,88.8s-56.7,81.7-118.2,81.7-126.4-37-130.8-97.5l59.4-3.8c6,32.7,31.1,53.4,70.8,53.4s58.8-9.3,58.8-36.5c-.5-31.1-37-34.9-68.1-42-61.6-13.1-113.9-30-113.9-85s45.8-90.4,117.7-90.4,110.6,36.5,119.9,94.3l-59.4,3.3c-6-31.1-34.9-49.6-64.8-49.6Z"/>
      <path class="st0" d="M1148.7,440.2c69.2,0,127.5,46.3,130.2,148.7l.5,18.5h-207.6c3.8,53.9,31.6,85.5,76.8,85.5s54.5-16.9,65.9-44.7l60.5,4.4c-16.9,55-67.6,89.3-126.4,89.3-83.9,0-137.8-59.4-137.8-150.9s53.9-150.9,137.8-150.9ZM1218.4,564.4c-6.5-55-37-75.2-69.7-75.2s-69.2,27.8-75.7,75.2h145.5Z"/>
      <path class="st0" d="M1366.6,446.7l1.6,48.5c14.7-38.7,48.5-55,87.7-55,64.8,0,98.1,46.3,98.1,109.5v185.8h-57.8v-167.8c0-51.2-15.8-79-56.1-79s-68.6,27.8-68.6,79v167.8h-57.8v-288.8h52.8Z"/>
      <path class="st0" d="M1721.8,490.3c-49,0-77.9,37.6-77.9,100.8s28.9,100.8,77.9,100.8,62.7-22.3,68.6-62.7l60.5,3.3c-8.7,67.6-62.7,109.5-129.1,109.5s-137.8-59.4-137.8-150.9,53.9-150.9,137.8-150.9,119.3,39.8,126.9,104.6l-59.9,3.3c-6-36.5-34.3-57.8-67-57.8Z"/>
      <path class="st0" d="M2004.5,440.2c69.2,0,127.5,46.3,130.2,148.7l.5,18.5h-207.6c3.8,53.9,31.6,85.5,76.8,85.5s54.5-16.9,65.9-44.7l60.5,4.4c-16.9,55-67.6,89.3-126.4,89.3-83.9,0-137.8-59.4-137.8-150.9s53.9-150.9,137.8-150.9ZM2074.3,564.4c-6.5-55-37-75.2-69.7-75.2s-69.2,27.8-75.7,75.2h145.5Z"/>
    </g>
    <g class="st1">
      <path class="st0" d="M262.8,762.7v319.8c0,13.1,7.1,19.6,19.6,19.6h23.4v47.4h-36c-38.7,0-64.8-25.1-64.8-64.3v-322.5h57.8Z"/>
      <path class="st0" d="M456.2,854.3c69.2,0,127.5,46.3,130.2,148.7l.5,18.5h-207.6c3.8,53.9,31.6,85.5,76.8,85.5s54.5-16.9,65.9-44.7l60.5,4.4c-16.9,55-67.6,89.3-126.4,89.3-83.9,0-137.8-59.4-137.8-150.9s53.9-150.9,137.8-150.9ZM525.9,978.5c-6.5-55-37-75.2-69.7-75.2s-69.2,27.8-75.7,75.2h145.5Z"/>
      <path class="st0" d="M739.5,854.3c78.5,0,121.5,43.6,121.5,122.6v107.3c0,14.7,6.5,20.2,18,20.2h11.4v45.2h-18c-26.2.5-61.6-3.8-64.3-44.7-13.1,27.8-45.2,51.2-93.2,51.2s-104.1-31.1-104.1-82.3,43-74.6,109.5-87.2l82.8-16.3c-.5-46.3-21.8-69.2-63.7-69.2s-56.1,17.4-63.7,50.1l-59.9-3.8c11.4-58.3,57.2-93.2,123.7-93.2ZM727.5,1111.4c43-.5,76.8-31.1,76.8-93.2v-3.8l-61.6,10.9c-39.8,7.1-71.9,10.9-71.9,47.4s18.5,38.7,56.7,38.7Z"/>
      <path class="st0" d="M1053.3,1149.6h-70.3l-105.7-288.8h60.5l80.1,229.4,80.1-229.4h61l-105.7,288.8Z"/>
      <path class="st0" d="M1291.4,854.3c69.2,0,127.5,46.3,130.2,148.7l.5,18.5h-207.6c3.8,53.9,31.6,85.5,76.8,85.5s54.5-16.9,65.9-44.7l60.5,4.4c-16.9,55-67.6,89.3-126.4,89.3-83.9,0-137.8-59.4-137.8-150.9s53.9-150.9,137.8-150.9ZM1361.1,978.5c-6.5-55-37-75.2-69.7-75.2s-69.2,27.8-75.7,75.2h145.5Z"/>
      <path class="st0" d="M1563.3,902.2c-29.4,0-53.4,15.3-53.4,40.9.5,26.2,33.8,36.5,64.3,42.5,71.9,13.1,117.7,32.1,117.7,88.8s-56.7,81.7-118.2,81.7-126.4-37-130.8-97.5l59.4-3.8c6,32.7,31.1,53.4,70.8,53.4s58.8-9.3,58.8-36.5c-.5-31.1-37-34.9-68.1-42-61.6-13.1-113.9-30-113.9-85s45.8-90.4,117.7-90.4,110.6,36.5,119.9,94.3l-59.4,3.3c-6-31.1-34.9-49.6-64.8-49.6Z"/>
    </g>
    <g class="st1">
      <path class="st0" d="M713.9,1176.8v65.4h76.3v46.9h-76.3v159.1c0,23.4,11.4,35.4,33.8,35.4h42v47.4h-47.9c-55.6,0-85.5-28.9-85.5-82.8v-159.1h-44.1v-46.9h44.1v-65.4h57.8Z"/>
      <path class="st0" d="M875.7,1242.2l1.6,54.5c10.4-37,32.1-54.5,69.2-54.5h27.8v47.4h-28.3c-45.2,0-65.4,25.1-65.4,73v168.3h-57.8v-288.8h52.8Z"/>
      <path class="st0" d="M1113.2,1235.6c78.5,0,121.5,43.6,121.5,122.6v107.3c0,14.7,6.5,20.2,18,20.2h11.4v45.2h-18c-26.2.5-61.6-3.8-64.3-44.7-13.1,27.8-45.2,51.2-93.2,51.2s-104.1-31.1-104.1-82.3,43-74.6,109.5-87.2l82.8-16.3c-.5-46.3-21.8-69.2-63.7-69.2s-56.1,17.4-63.7,50.1l-59.9-3.8c11.4-58.3,57.2-93.2,123.7-93.2ZM1101.2,1492.8c43-.5,76.8-31.1,76.8-93.2v-3.8l-61.6,10.9c-39.8,7.1-71.9,10.9-71.9,47.4s18.5,38.7,56.7,38.7Z"/>
      <path class="st0" d="M1411.8,1285.8c-49,0-77.9,37.6-77.9,100.8s28.9,100.8,77.9,100.8,62.7-22.3,68.6-62.7l60.5,3.3c-8.7,67.6-62.7,109.5-129.1,109.5s-137.8-59.4-137.8-150.9,53.9-150.9,137.8-150.9,119.3,39.8,126.9,104.6l-59.9,3.3c-6-36.5-34.3-57.8-67-57.8Z"/>
      <path class="st0" d="M1694.5,1235.6c69.2,0,127.5,46.3,130.2,148.7l.5,18.5h-207.6c3.8,53.9,31.6,85.5,76.8,85.5s54.5-16.9,65.9-44.7l60.5,4.4c-16.9,55-67.6,89.3-126.4,89.3-83.9,0-137.8-59.4-137.8-150.9s53.9-150.9,137.8-150.9ZM1764.3,1359.8c-6.5-55-37-75.2-69.7-75.2s-69.2,27.8-75.7,75.2h145.5Z"/>
      <path class="st0" d="M1966.4,1283.6c-29.4,0-53.4,15.3-53.4,40.9.5,26.2,33.8,36.5,64.3,42.5,71.9,13.1,117.7,32.1,117.7,88.8s-56.7,81.7-118.2,81.7-126.4-37-130.8-97.5l59.4-3.8c6,32.7,31.1,53.4,70.8,53.4s58.8-9.3,58.8-36.5c-.5-31.1-37-34.9-68.1-42-61.6-13.1-113.9-30-113.9-85s45.8-90.4,117.7-90.4,110.6,36.5,119.9,94.3l-59.4,3.3c-6-31.1-34.9-49.6-64.8-49.6Z"/>
    </g>
  </g>
</svg>