<?xml version="1.0" encoding="UTF-8"?>
<svg id="Ebene_1" data-name="Ebene 1" xmlns="http://www.w3.org/2000/svg" viewBox="0 0 2160 700">
  <defs>
    <style>
      .cls-1 {
        fill: #9d9d9d;
      }
    </style>
  </defs>
  <path class="cls-1" d="M78.6,44.24c15.96,0,28.14,11.34,28.14,26.88s-12.18,27.3-28.14,27.3-27.72-11.34-27.72-27.3,12.18-26.88,27.72-26.88ZM105.48,127.4v222.6h-53.76V127.4h53.76Z"/>
  <path class="cls-1" d="M182.76,127.4l1.68,36.96c11.76-30.24,36.96-42,66.78-42,49.56,0,76.44,34.44,76.44,84.42v143.22h-54.18v-126c0-37.38-9.66-57.96-38.64-57.96s-47.04,20.58-47.04,57.96v126h-53.76V127.4h48.72Z"/>
  <path class="cls-1" d="M461.64,35h53.34l-124.32,361.2h-52.92L461.64,35Z"/>
  <path class="cls-1" d="M649.8,350h-63.42l-81.9-222.6h55.44l57.96,168,57.96-168h56.28l-82.32,222.6Z"/>
  <path class="cls-1" d="M744.29,52.22h55.86v44.52h-55.86v-44.52ZM798.89,127.4v222.6h-53.76V127.4h53.76Z"/>
  <path class="cls-1" d="M919.01,162.68c-21,0-37.38,10.92-36.96,28.98s22.68,25.62,44.94,29.82c60.9,10.5,94.5,26.46,94.5,68.88s-42.84,64.68-94.92,64.68c-60.9,0-102.06-28.56-105.84-75.6l55.02-2.94c4.2,23.52,21.84,37.8,49.56,37.8,18.48,0,40.74-6.72,40.32-25.2,0-21.42-24.78-24.78-47.46-29.82-55.02-10.92-91.98-25.2-91.98-66.78,0-43.68,36.12-70.14,95.76-70.14,52.08,0,89.46,28.14,97.02,73.92l-54.6,2.52c-4.2-22.68-23.94-36.12-45.36-36.12Z"/>
  <path class="cls-1" d="M1066.43,44.24c15.96,0,28.14,11.34,28.14,26.88s-12.18,27.3-28.14,27.3-27.72-11.34-27.72-27.3,12.18-26.88,27.72-26.88ZM1093.31,127.4v222.6h-53.76V127.4h53.76Z"/>
  <path class="cls-1" d="M1169.75,51.8v105.84c13.02-21.84,38.22-35.28,67.2-35.28,57.96,0,94.08,44.94,94.08,116.34s-36.12,116.34-94.08,116.34c-30.66,0-55.86-14.28-68.46-36.96l-1.26,31.92h-51.24V51.8h53.76ZM1220.99,311.78c32.76,0,54.6-28.56,54.6-73.08s-21.42-74.34-54.6-74.34-54.6,28.98-54.6,74.34,21.42,73.08,54.6,73.08Z"/>
  <path class="cls-1" d="M1406.21,51.8v240.24c0,10.5,5.88,16.38,16.38,16.38h16.8v41.58h-30.66c-33.6,0-56.28-21-56.28-55.86V51.8h53.76Z"/>
  <path class="cls-1" d="M1553.62,122.36c57.54,0,103.74,39.48,104.58,118.02v13.02h-158.34c2.52,36.96,21.84,59.22,53.76,59.22,20.16,0,38.64-11.76,46.62-31.08l55.02,4.2c-13.44,42.42-53.76,69.3-101.64,69.3-66.78,0-110.46-45.78-110.46-116.34s43.68-116.34,110.46-116.34ZM1602.76,217.7c-4.2-38.22-25.2-52.92-49.14-52.92-29.82,0-49.14,19.74-53.34,52.92h102.48Z"/>
  <path class="cls-1" d="M464.23,392.4h47.04l2.1,49.56-5.46-6.3c5.88-15.96,14.56-28,26.04-36.12,11.48-8.12,25.76-12.18,42.84-12.18,19.04,0,35.35,5.04,48.93,15.12,13.58,10.08,23.8,23.87,30.66,41.37,6.86,17.5,10.29,37.45,10.29,59.85s-3.43,42-10.29,59.64c-6.86,17.64-17.08,31.5-30.66,41.58-13.58,10.08-29.89,15.12-48.93,15.12-10.92,0-20.79-1.96-29.61-5.88-8.82-3.92-16.52-9.45-23.1-16.59-6.58-7.14-11.97-16.03-16.17-26.67l6.3-5.46v112.56h-49.98v-285.6ZM515.68,540.03c3.78,10.78,9.59,19.39,17.43,25.83,7.84,6.44,17.5,9.66,28.98,9.66,17.08,0,29.96-6.79,38.64-20.37,8.68-13.58,13.02-30.73,13.02-51.45s-4.34-38.29-13.02-51.87c-8.68-13.58-21.56-20.37-38.64-20.37-11.48,0-21.14,3.29-28.98,9.87-7.84,6.58-13.65,15.26-17.43,26.04-3.78,10.78-5.67,22.89-5.67,36.33s1.89,25.55,5.67,36.33Z"/>
  <path class="cls-1" d="M754.87,392.4v44.1h-81.48v-44.1h81.48ZM846.85,570.9v44.1h-173.46v-44.1h173.46ZM761.59,392.4l4.62,58.38-3.36-3.78c2.52-18.48,8.54-32.2,18.06-41.16,9.52-8.96,22.68-13.44,39.48-13.44h46.62v44.1h-42.42c-10.64,0-19.32,1.75-26.04,5.25-6.72,3.5-11.69,8.82-14.91,15.96-3.22,7.14-4.83,16.45-4.83,27.93v129.36h-49.56v-222.6h32.34Z"/>
  <path class="cls-1" d="M881.28,442.38c8.68-17.64,21-31.22,36.96-40.74,15.96-9.52,34.72-14.28,56.28-14.28,18.2,0,34.86,4.13,49.98,12.39,15.12,8.26,27.44,21,36.96,38.22,9.52,17.22,14.56,38.57,15.12,64.05v14.28h-154.56c1.4,18.76,6.65,33.32,15.75,43.68,9.1,10.36,21.35,15.54,36.75,15.54,10.08,0,19.18-2.87,27.3-8.61,8.12-5.74,14.42-13.79,18.9-24.15l52.08,5.04c-6.16,21.84-18.2,39.34-36.12,52.5-17.92,13.16-38.64,19.74-62.16,19.74-21.56,0-40.32-4.76-56.28-14.28s-28.28-23.1-36.96-40.74c-8.68-17.64-13.02-38.08-13.02-61.32s4.34-43.68,13.02-61.32ZM1005.39,444.06c-8.54-8.12-18.83-12.18-30.87-12.18-14,0-25.41,4.27-34.23,12.81-8.82,8.54-14.49,20.79-17.01,36.75h99.12c-2.8-16.8-8.47-29.26-17.01-37.38Z"/>
  <path class="cls-1" d="M1203.42,440.07c-7.84-5.46-17.5-8.19-28.98-8.19-10.36,0-18.83,2.24-25.41,6.72-6.58,4.48-9.73,10.64-9.45,18.48.56,7.56,4.34,13.16,11.34,16.8,7,3.64,17.92,7.42,32.76,11.34l7.14,1.68c16.24,3.64,30.31,8.4,42.21,14.28,11.9,5.88,21.48,13.37,28.77,22.47,7.28,9.1,10.92,19.67,10.92,31.71,0,21-8.33,37.03-24.99,48.09-16.66,11.06-38.57,16.59-65.73,16.59-18.2,0-34.65-3.15-49.35-9.45-14.7-6.3-26.53-15.26-35.49-26.88-8.96-11.62-14-25.13-15.12-40.53l53.34-2.52c.84,7.56,3.36,13.86,7.56,18.9,4.2,5.04,9.66,8.96,16.38,11.76,6.72,2.8,14.28,4.2,22.68,4.2,11.2,0,20.37-1.68,27.51-5.04,7.14-3.36,10.71-8.96,10.71-16.8,0-4.76-1.75-8.68-5.25-11.76-3.5-3.08-7.98-5.6-13.44-7.56-5.46-1.96-12.67-4.2-21.63-6.72l-9.24-2.1c-26.04-6.16-46.41-14.56-61.11-25.2-14.7-10.64-22.05-24.78-22.05-42.42,0-14.28,3.92-26.74,11.76-37.38,7.83-10.64,18.75-18.83,32.76-24.57,14-5.74,29.4-8.61,46.2-8.61,24.36,0,45.01,6.65,61.95,19.95,16.94,13.3,27.23,31.15,30.87,53.55l-52.92,2.52c-1.96-10.08-6.87-17.85-14.7-23.31Z"/>
  <path class="cls-1" d="M1292.88,442.38c8.68-17.64,21-31.22,36.96-40.74,15.96-9.52,34.71-14.28,56.28-14.28,18.2,0,34.86,4.13,49.98,12.39,15.12,8.26,27.44,21,36.96,38.22,9.52,17.22,14.56,38.57,15.12,64.05v14.28h-154.56c1.4,18.76,6.65,33.32,15.75,43.68,9.1,10.36,21.35,15.54,36.75,15.54,10.08,0,19.18-2.87,27.3-8.61,8.12-5.74,14.42-13.79,18.9-24.15l52.08,5.04c-6.16,21.84-18.2,39.34-36.12,52.5-17.92,13.16-38.64,19.74-62.16,19.74-21.56,0-40.32-4.76-56.28-14.28-15.96-9.52-28.29-23.1-36.96-40.74-8.68-17.64-13.02-38.08-13.02-61.32s4.34-43.68,13.02-61.32ZM1416.98,444.06c-8.54-8.12-18.83-12.18-30.87-12.18-14,0-25.41,4.27-34.23,12.81-8.82,8.54-14.49,20.79-17.01,36.75h99.12c-2.8-16.8-8.47-29.26-17.01-37.38Z"/>
  <path class="cls-1" d="M1547.81,392.4l3.36,65.1-8.4-2.1c2.79-22.12,10.43-38.99,22.89-50.61,12.46-11.62,28.07-17.43,46.83-17.43,22.96,0,40.6,7.63,52.92,22.89,12.32,15.26,18.48,35.77,18.48,61.53v143.22h-49.98v-132.3c0-18.76-3.01-32.69-9.03-41.79-6.02-9.1-15.61-13.65-28.77-13.65-14,0-24.85,4.76-32.55,14.28-7.7,9.52-11.55,23.24-11.55,41.16v132.3h-49.98v-222.6h45.78Z"/>
  <path class="cls-1" d="M1831.1,444.06c-8.82-8.12-19.11-12.18-30.87-12.18-16.8,0-29.89,6.3-39.27,18.9-9.38,12.6-14.07,30.24-14.07,52.92s4.69,40.32,14.07,52.92c9.38,12.6,22.47,18.9,39.27,18.9,12.32,0,22.89-4.13,31.71-12.39,8.82-8.26,14.35-19.53,16.59-33.81l52.92,2.52c-2.24,17.64-8.05,33.11-17.43,46.41-9.38,13.3-21.42,23.59-36.12,30.87-14.7,7.28-30.59,10.92-47.67,10.92-21.56,0-40.25-4.76-56.07-14.28-15.82-9.52-28-23.1-36.54-40.74-8.54-17.64-12.81-38.08-12.81-61.32s4.27-43.68,12.81-61.32c8.54-17.64,20.72-31.22,36.54-40.74,15.82-9.52,34.51-14.28,56.07-14.28,16.8,0,32.41,3.57,46.83,10.71,14.42,7.14,26.39,17.22,35.91,30.24,9.52,13.02,15.12,27.93,16.8,44.73l-52.08,2.94c-2.24-13.16-7.77-23.8-16.59-31.92Z"/>
  <path class="cls-1" d="M1918.66,442.38c8.68-17.64,21-31.22,36.96-40.74,15.96-9.52,34.72-14.28,56.28-14.28,18.2,0,34.86,4.13,49.98,12.39,15.12,8.26,27.44,21,36.96,38.22,9.52,17.22,14.55,38.57,15.12,64.05v14.28h-154.56c1.4,18.76,6.65,33.32,15.75,43.68,9.09,10.36,21.35,15.54,36.75,15.54,10.08,0,19.17-2.87,27.3-8.61,8.12-5.74,14.42-13.79,18.9-24.15l52.08,5.04c-6.16,21.84-18.21,39.34-36.12,52.5-17.92,13.16-38.64,19.74-62.16,19.74-21.56,0-40.32-4.76-56.28-14.28-15.96-9.52-28.28-23.1-36.96-40.74-8.68-17.64-13.02-38.08-13.02-61.32s4.34-43.68,13.02-61.32ZM2042.77,444.06c-8.54-8.12-18.83-12.18-30.87-12.18-14.01,0-25.41,4.27-34.23,12.81-8.82,8.54-14.49,20.79-17.01,36.75h99.12c-2.8-16.8-8.47-29.26-17.01-37.38Z"/>
</svg>